<svg xmlns="http://www.w3.org/2000/svg" xmlns:xlink="http://www.w3.org/1999/xlink" width="240" zoomAndPan="magnify" viewBox="0 0 180 179.999997" height="240" preserveAspectRatio="xMidYMid meet" version="1.0"><path fill="#ffffff" d="M 52.703125 0.617188 C 43.128906 1.066406 36.59375 2.601562 30.878906 4.839844 C 24.960938 7.148438 19.949219 10.234375 14.964844 15.246094 C 9.972656 20.253906 6.902344 25.273438 4.621094 31.199219 C 2.40625 36.933594 0.90625 43.46875 0.484375 53.050781 C 0.0585938 62.640625 -0.0351562 65.699219 0.0078125 90.136719 C 0.0507812 114.5625 0.160156 117.632812 0.617188 127.230469 C 1.078125 136.800781 2.601562 143.332031 4.839844 149.054688 C 7.148438 154.972656 10.234375 159.972656 15.246094 164.96875 C 20.253906 169.960938 25.273438 173.023438 31.199219 175.3125 C 36.925781 177.523438 43.46875 179.035156 53.042969 179.449219 C 62.640625 179.871094 65.699219 179.964844 90.128906 179.914062 C 114.5625 179.871094 117.625 179.761719 127.222656 179.304688 C 136.792969 178.847656 143.320312 177.3125 149.042969 175.082031 C 154.960938 172.769531 159.972656 169.691406 164.960938 164.679688 C 169.945312 159.667969 173.011719 154.648438 175.304688 148.722656 C 177.515625 143 179.023438 136.453125 179.441406 126.890625 C 179.855469 117.292969 179.957031 114.222656 179.914062 89.796875 C 179.871094 65.371094 179.753906 62.308594 179.304688 52.710938 C 178.847656 43.128906 177.320312 36.601562 175.082031 30.878906 C 172.769531 24.960938 169.691406 19.957031 164.679688 14.964844 C 159.667969 9.980469 154.648438 6.902344 148.722656 4.621094 C 143 2.40625 136.453125 0.898438 126.882812 0.484375 C 117.285156 0.0585938 114.214844 -0.0351562 89.789062 0.0078125 C 65.359375 0.0507812 62.300781 0.160156 52.703125 0.617188 M 53.753906 163.246094 C 44.988281 162.863281 40.222656 161.40625 37.042969 160.1875 C 32.835938 158.558594 29.84375 156.609375 26.683594 153.480469 C 23.527344 150.332031 21.578125 147.339844 19.933594 143.152344 C 18.703125 139.980469 17.21875 135.226562 16.804688 126.449219 C 16.355469 116.96875 16.253906 114.121094 16.210938 90.101562 C 16.167969 66.089844 16.253906 63.242188 16.667969 53.753906 C 17.042969 44.988281 18.507812 40.222656 19.730469 37.050781 C 21.359375 32.847656 23.300781 29.851562 26.4375 26.691406 C 29.582031 23.535156 32.574219 21.585938 36.773438 19.941406 C 39.941406 18.703125 44.699219 17.226562 53.464844 16.8125 C 62.953125 16.363281 65.792969 16.269531 89.8125 16.21875 C 113.832031 16.167969 116.683594 16.253906 126.167969 16.675781 C 134.9375 17.058594 139.703125 18.507812 142.871094 19.738281 C 147.078125 21.367188 150.078125 23.300781 153.234375 26.445312 C 156.386719 29.589844 158.347656 32.574219 159.980469 36.78125 C 161.21875 39.941406 162.695312 44.707031 163.109375 53.464844 C 163.558594 62.953125 163.660156 65.800781 163.703125 89.8125 C 163.746094 113.832031 163.660156 116.683594 163.246094 126.160156 C 162.863281 134.929688 161.40625 139.703125 160.1875 142.871094 C 158.558594 147.070312 156.617188 150.070312 153.46875 153.226562 C 150.324219 156.371094 147.339844 158.328125 143.136719 159.972656 C 139.972656 161.210938 135.207031 162.6875 126.449219 163.101562 C 116.960938 163.550781 114.121094 163.652344 90.09375 163.695312 C 66.082031 163.738281 63.234375 163.652344 53.746094 163.238281 M 127.09375 41.875 C 127.101562 47.835938 131.953125 52.660156 137.902344 52.644531 C 143.863281 52.636719 148.6875 47.792969 148.679688 41.832031 C 148.671875 35.871094 143.820312 31.046875 137.863281 31.058594 C 131.902344 31.066406 127.078125 35.914062 127.085938 41.867188 M 43.765625 90.050781 C 43.816406 115.5625 64.539062 136.199219 90.042969 136.148438 C 115.554688 136.097656 136.199219 115.386719 136.148438 89.871094 C 136.097656 64.371094 115.375 43.722656 89.863281 43.765625 C 64.359375 43.816406 43.714844 64.539062 43.765625 90.050781 M 59.96875 90.015625 C 59.945312 73.457031 73.339844 60.003906 89.898438 59.976562 C 106.457031 59.945312 119.914062 73.339844 119.945312 89.90625 C 119.980469 106.464844 106.574219 119.921875 90.015625 119.945312 C 73.457031 119.980469 60.003906 106.574219 59.976562 90.015625 " fill-opacity="1" fill-rule="nonzero"/></svg>